w1b400r0.ufo
<glyph name="_21" format="2">
  <advance width="1"/>
  <unicode hex="0115"/>
  
  <outline>
    <component base="cap" xOffset="0" yOffset="0.000" />
    <component base="cap" xOffset="0" yOffset="210.000" />
    <contour>
      <point x="0.000" y="0.000" type="line"/>
      <point x="0.000" y="210.000" type="line"/>
      <point x="400.000" y="210.000" type="line"/>
      <point x="400.000" y="0.000" type="line"/>
    </contour>
  </outline>
</glyph>
<glyph name="_30" format="2">
  <advance width="1"/>
  <unicode hex="011E"/>
  <unicode hex="0033"/><unicode hex="0070"/>
  <outline>
    <component base="cap" xOffset="0" yOffset="0.000" />
    <component base="cap" xOffset="0" yOffset="300.000" />
    <contour>
      <point x="0.000" y="0.000" type="line"/>
      <point x="0.000" y="300.000" type="line"/>
      <point x="400.000" y="300.000" type="line"/>
      <point x="400.000" y="0.000" type="line"/>
    </contour>
  </outline>
</glyph>
<glyph name="_34" format="2">
  <advance width="1"/>
  <unicode hex="0122"/>
  <unicode hex="0072"/>
  <outline>
    <component base="cap" xOffset="0" yOffset="0.000" />
    <component base="cap" xOffset="0" yOffset="340.000" />
    <contour>
      <point x="0.000" y="0.000" type="line"/>
      <point x="0.000" y="340.000" type="line"/>
      <point x="400.000" y="340.000" type="line"/>
      <point x="400.000" y="0.000" type="line"/>
    </contour>
  </outline>
</glyph>
<glyph name="_42" format="2">
  <advance width="1"/>
  <unicode hex="012A"/>
  <unicode hex="2584"/><unicode hex="0076"/>
  <outline>
    <component base="cap" xOffset="0" yOffset="0.000" />
    <component base="cap" xOffset="0" yOffset="420.000" />
    <contour>
      <point x="0.000" y="0.000" type="line"/>
      <point x="0.000" y="420.000" type="line"/>
      <point x="400.000" y="420.000" type="line"/>
      <point x="400.000" y="0.000" type="line"/>
    </contour>
  </outline>
</glyph>
<glyph name="_50" format="2">
  <advance width="1"/>
  <unicode hex="0132"/>
  <unicode hex="0035"/><unicode hex="007A"/>
  <outline>
    <component base="cap" xOffset="0" yOffset="0.000" />
    <component base="cap" xOffset="0" yOffset="500.000" />
    <contour>
      <point x="0.000" y="0.000" type="line"/>
      <point x="0.000" y="500.000" type="line"/>
      <point x="400.000" y="500.000" type="line"/>
      <point x="400.000" y="0.000" type="line"/>
    </contour>
  </outline>
</glyph>
<glyph name="_64" format="2">
  <advance width="1"/>
  <unicode hex="0140"/>
  <unicode hex="0047"/>
  <outline>
    <component base="cap" xOffset="0" yOffset="0.000" />
    <component base="cap" xOffset="0" yOffset="640.000" />
    <contour>
      <point x="0.000" y="0.000" type="line"/>
      <point x="0.000" y="640.000" type="line"/>
      <point x="400.000" y="640.000" type="line"/>
      <point x="400.000" y="0.000" type="line"/>
    </contour>
  </outline>
</glyph>
<glyph name="_80" format="2">
  <advance width="1"/>
  <unicode hex="0150"/>
  <unicode hex="0038"/><unicode hex="004F"/>
  <outline>
    <component base="cap" xOffset="0" yOffset="0" />
    <component base="cap" xOffset="0" yOffset="800" />
    <contour>
      <point x="0" y="0" type="line"/>
      <point x="0" y="800" type="line"/>
      <point x="400" y="800" type="line"/>
      <point x="400" y="0" type="line"/>
    </contour>
  </outline>
</glyph>
<glyph name="_101" format="2">
  <advance width="1"/>
  <unicode hex="0165"/>
  
  <outline>
    <component base="cap" xOffset="0" yOffset="0.000" />
    <component base="cap" xOffset="0" yOffset="1010.000" />
    <contour>
      <point x="0.000" y="0.000" type="line"/>
      <point x="0.000" y="1010.000" type="line"/>
      <point x="400.000" y="1010.000" type="line"/>
      <point x="400.000" y="0.000" type="line"/>
    </contour>
  </outline>
</glyph>
<glyph name="_104" format="2">
  <advance width="1"/>
  <unicode hex="0168"/>
  
  <outline>
    <component base="cap" xOffset="0" yOffset="0.000" />
    <component base="cap" xOffset="0" yOffset="1040.000" />
    <contour>
      <point x="0.000" y="0.000" type="line"/>
      <point x="0.000" y="1040.000" type="line"/>
      <point x="400.000" y="1040.000" type="line"/>
      <point x="400.000" y="0.000" type="line"/>
    </contour>
  </outline>
</glyph>
<glyph name="_1.center" format="2">
  <advance width="1"/>
  <unicode hex="0401"/>
  
  <outline>
    <component base="cap" xOffset="0" yOffset="495.000" />
    <component base="cap" xOffset="0" yOffset="505.000" />
    <contour>
      <point x="0.000" y="495.000" type="line"/>
      <point x="0.000" y="505.000" type="line"/>
      <point x="400.000" y="505.000" type="line"/>
      <point x="400.000" y="495.000" type="line"/>
    </contour>
  </outline>
</glyph>
<glyph name="_2.center" format="2">
  <advance width="1"/>
  <unicode hex="0402"/>
  
  <outline>
    <component base="cap" xOffset="0" yOffset="490.000" />
    <component base="cap" xOffset="0" yOffset="510.000" />
    <contour>
      <point x="0.000" y="490.000" type="line"/>
      <point x="0.000" y="510.000" type="line"/>
      <point x="400.000" y="510.000" type="line"/>
      <point x="400.000" y="490.000" type="line"/>
    </contour>
  </outline>
</glyph>
<glyph name="_10.center" format="2">
  <advance width="1"/>
  <unicode hex="040A"/>
  
  <outline>
    <component base="cap" xOffset="0" yOffset="450" />
    <component base="cap" xOffset="0" yOffset="550" />
    <contour>
      <point x="0" y="450" type="line"/>
      <point x="0" y="550" type="line"/>
      <point x="400" y="550" type="line"/>
      <point x="400" y="450" type="line"/>
    </contour>
  </outline>
</glyph>
<glyph name="_18.center" format="2">
  <advance width="1"/>
  <unicode hex="0412"/>
  
  <outline>
    <component base="cap" xOffset="0" yOffset="410.000" />
    <component base="cap" xOffset="0" yOffset="590.000" />
    <contour>
      <point x="0.000" y="410.000" type="line"/>
      <point x="0.000" y="590.000" type="line"/>
      <point x="400.000" y="590.000" type="line"/>
      <point x="400.000" y="410.000" type="line"/>
    </contour>
  </outline>
</glyph>
<glyph name="_21.center" format="2">
  <advance width="1"/>
  <unicode hex="0415"/>
  
  <outline>
    <component base="cap" xOffset="0" yOffset="395.000" />
    <component base="cap" xOffset="0" yOffset="605.000" />
    <contour>
      <point x="0.000" y="395.000" type="line"/>
      <point x="0.000" y="605.000" type="line"/>
      <point x="400.000" y="605.000" type="line"/>
      <point x="400.000" y="395.000" type="line"/>
    </contour>
  </outline>
</glyph>
<glyph name="_24.center" format="2">
  <advance width="1"/>
  <unicode hex="0418"/>
  
  <outline>
    <component base="cap" xOffset="0" yOffset="380.000" />
    <component base="cap" xOffset="0" yOffset="620.000" />
    <contour>
      <point x="0.000" y="380.000" type="line"/>
      <point x="0.000" y="620.000" type="line"/>
      <point x="400.000" y="620.000" type="line"/>
      <point x="400.000" y="380.000" type="line"/>
    </contour>
  </outline>
</glyph>
<glyph name="_25.center" format="2">
  <advance width="1"/>
  <unicode hex="0419"/>
  
  <outline>
    <component base="cap" xOffset="0" yOffset="375.000" />
    <component base="cap" xOffset="0" yOffset="625.000" />
    <contour>
      <point x="0.000" y="375.000" type="line"/>
      <point x="0.000" y="625.000" type="line"/>
      <point x="400.000" y="625.000" type="line"/>
      <point x="400.000" y="375.000" type="line"/>
    </contour>
  </outline>
</glyph>
<glyph name="_34.center" format="2">
  <advance width="1"/>
  <unicode hex="0422"/>
  
  <outline>
    <component base="cap" xOffset="0" yOffset="330.000" />
    <component base="cap" xOffset="0" yOffset="670.000" />
    <contour>
      <point x="0.000" y="330.000" type="line"/>
      <point x="0.000" y="670.000" type="line"/>
      <point x="400.000" y="670.000" type="line"/>
      <point x="400.000" y="330.000" type="line"/>
    </contour>
  </outline>
</glyph>
<glyph name="_46.center" format="2">
  <advance width="1"/>
  <unicode hex="042E"/>
  
  <outline>
    <component base="cap" xOffset="0" yOffset="270.000" />
    <component base="cap" xOffset="0" yOffset="730.000" />
    <contour>
      <point x="0.000" y="270.000" type="line"/>
      <point x="0.000" y="730.000" type="line"/>
      <point x="400.000" y="730.000" type="line"/>
      <point x="400.000" y="270.000" type="line"/>
    </contour>
  </outline>
</glyph>
<glyph name="_47.center" format="2">
  <advance width="1"/>
  <unicode hex="042F"/>
  
  <outline>
    <component base="cap" xOffset="0" yOffset="265.000" />
    <component base="cap" xOffset="0" yOffset="735.000" />
    <contour>
      <point x="0.000" y="265.000" type="line"/>
      <point x="0.000" y="735.000" type="line"/>
      <point x="400.000" y="735.000" type="line"/>
      <point x="400.000" y="265.000" type="line"/>
    </contour>
  </outline>
</glyph>
<glyph name="_49.center" format="2">
  <advance width="1"/>
  <unicode hex="0431"/>
  
  <outline>
    <component base="cap" xOffset="0" yOffset="255.000" />
    <component base="cap" xOffset="0" yOffset="745.000" />
    <contour>
      <point x="0.000" y="255.000" type="line"/>
      <point x="0.000" y="745.000" type="line"/>
      <point x="400.000" y="745.000" type="line"/>
      <point x="400.000" y="255.000" type="line"/>
    </contour>
  </outline>
</glyph>
<glyph name="_55.center" format="2">
  <advance width="1"/>
  <unicode hex="0437"/>
  
  <outline>
    <component base="cap" xOffset="0" yOffset="225.000" />
    <component base="cap" xOffset="0" yOffset="775.000" />
    <contour>
      <point x="0.000" y="225.000" type="line"/>
      <point x="0.000" y="775.000" type="line"/>
      <point x="400.000" y="775.000" type="line"/>
      <point x="400.000" y="225.000" type="line"/>
    </contour>
  </outline>
</glyph>
<glyph name="_61.center" format="2">
  <advance width="1"/>
  <unicode hex="043D"/>
  
  <outline>
    <component base="cap" xOffset="0" yOffset="195.000" />
    <component base="cap" xOffset="0" yOffset="805.000" />
    <contour>
      <point x="0.000" y="195.000" type="line"/>
      <point x="0.000" y="805.000" type="line"/>
      <point x="400.000" y="805.000" type="line"/>
      <point x="400.000" y="195.000" type="line"/>
    </contour>
  </outline>
</glyph>
<glyph name="_64.center" format="2">
  <advance width="1"/>
  <unicode hex="0440"/>
  
  <outline>
    <component base="cap" xOffset="0" yOffset="180.000" />
    <component base="cap" xOffset="0" yOffset="820.000" />
    <contour>
      <point x="0.000" y="180.000" type="line"/>
      <point x="0.000" y="820.000" type="line"/>
      <point x="400.000" y="820.000" type="line"/>
      <point x="400.000" y="180.000" type="line"/>
    </contour>
  </outline>
</glyph>
<glyph name="_66.center" format="2">
  <advance width="1"/>
  <unicode hex="0442"/>
  
  <outline>
    <component base="cap" xOffset="0" yOffset="170.000" />
    <component base="cap" xOffset="0" yOffset="830.000" />
    <contour>
      <point x="0.000" y="170.000" type="line"/>
      <point x="0.000" y="830.000" type="line"/>
      <point x="400.000" y="830.000" type="line"/>
      <point x="400.000" y="170.000" type="line"/>
    </contour>
  </outline>
</glyph>
<glyph name="_67.center" format="2">
  <advance width="1"/>
  <unicode hex="0443"/>
  
  <outline>
    <component base="cap" xOffset="0" yOffset="165.000" />
    <component base="cap" xOffset="0" yOffset="835.000" />
    <contour>
      <point x="0.000" y="165.000" type="line"/>
      <point x="0.000" y="835.000" type="line"/>
      <point x="400.000" y="835.000" type="line"/>
      <point x="400.000" y="165.000" type="line"/>
    </contour>
  </outline>
</glyph>
<glyph name="_73.center" format="2">
  <advance width="1"/>
  <unicode hex="0449"/>
  
  <outline>
    <component base="cap" xOffset="0" yOffset="135.000" />
    <component base="cap" xOffset="0" yOffset="865.000" />
    <contour>
      <point x="0.000" y="135.000" type="line"/>
      <point x="0.000" y="865.000" type="line"/>
      <point x="400.000" y="865.000" type="line"/>
      <point x="400.000" y="135.000" type="line"/>
    </contour>
  </outline>
</glyph>
<glyph name="_74.center" format="2">
  <advance width="1"/>
  <unicode hex="044A"/>
  
  <outline>
    <component base="cap" xOffset="0" yOffset="130.000" />
    <component base="cap" xOffset="0" yOffset="870.000" />
    <contour>
      <point x="0.000" y="130.000" type="line"/>
      <point x="0.000" y="870.000" type="line"/>
      <point x="400.000" y="870.000" type="line"/>
      <point x="400.000" y="130.000" type="line"/>
    </contour>
  </outline>
</glyph>
<glyph name="_90.center" format="2">
  <advance width="1"/>
  <unicode hex="045A"/>
  
  <outline>
    <component base="cap" xOffset="0" yOffset="50.000" />
    <component base="cap" xOffset="0" yOffset="950.000" />
    <contour>
      <point x="0.000" y="50.000" type="line"/>
      <point x="0.000" y="950.000" type="line"/>
      <point x="400.000" y="950.000" type="line"/>
      <point x="400.000" y="50.000" type="line"/>
    </contour>
  </outline>
</glyph>
<glyph name="_93.center" format="2">
  <advance width="1"/>
  <unicode hex="045D"/>
  
  <outline>
    <component base="cap" xOffset="0" yOffset="35" />
    <component base="cap" xOffset="0" yOffset="965" />
    <contour>
      <point x="0" y="35" type="line"/>
      <point x="0" y="965" type="line"/>
      <point x="400" y="965" type="line"/>
      <point x="400" y="35" type="line"/>
    </contour>
  </outline>
</glyph>
<glyph name="_94.center" format="2">
  <advance width="1"/>
  <unicode hex="045E"/>
  
  <outline>
    <component base="cap" xOffset="0" yOffset="30" />
    <component base="cap" xOffset="0" yOffset="970" />
    <contour>
      <point x="0" y="30" type="line"/>
      <point x="0" y="970" type="line"/>
      <point x="400" y="970" type="line"/>
      <point x="400" y="30" type="line"/>
    </contour>
  </outline>
</glyph>
<glyph name="_97.center" format="2">
  <advance width="1"/>
  <unicode hex="0461"/>
  
  <outline>
    <component base="cap" xOffset="0" yOffset="15.000" />
    <component base="cap" xOffset="0" yOffset="985.000" />
    <contour>
      <point x="0.000" y="15.000" type="line"/>
      <point x="0.000" y="985.000" type="line"/>
      <point x="400.000" y="985.000" type="line"/>
      <point x="400.000" y="15.000" type="line"/>
    </contour>
  </outline>
</glyph>
<glyph name="_99.center" format="2">
  <advance width="1"/>
  <unicode hex="0463"/>
  
  <outline>
    <component base="cap" xOffset="0" yOffset="5.000" />
    <component base="cap" xOffset="0" yOffset="995.000" />
    <contour>
      <point x="0.000" y="5.000" type="line"/>
      <point x="0.000" y="995.000" type="line"/>
      <point x="400.000" y="995.000" type="line"/>
      <point x="400.000" y="5.000" type="line"/>
    </contour>
  </outline>
</glyph>
<glyph name="_101.center" format="2">
  <advance width="1"/>
  <unicode hex="0465"/>
  
  <outline>
    <component base="cap" xOffset="0" yOffset="-5.000" />
    <component base="cap" xOffset="0" yOffset="1005.000" />
    <contour>
      <point x="0.000" y="-5.000" type="line"/>
      <point x="0.000" y="1005.000" type="line"/>
      <point x="400.000" y="1005.000" type="line"/>
      <point x="400.000" y="-5.000" type="line"/>
    </contour>
  </outline>
</glyph>
<glyph name="_102.center" format="2">
  <advance width="1"/>
  <unicode hex="0466"/>
  
  <outline>
    <component base="cap" xOffset="0" yOffset="-10.000" />
    <component base="cap" xOffset="0" yOffset="1010.000" />
    <contour>
      <point x="0.000" y="-10.000" type="line"/>
      <point x="0.000" y="1010.000" type="line"/>
      <point x="400.000" y="1010.000" type="line"/>
      <point x="400.000" y="-10.000" type="line"/>
    </contour>
  </outline>
</glyph>
<glyph name="_45.clip" format="2">
  <advance width="1"/>
  
  <outline>
    <contour>
        <point x="0.000" y="450.000"/>

        <point x="0.000" y="450.000"/>
        <point x="0.000" y="450.000" type="curve" smooth="yes"/>
        <point x="400.000" y="450.000" type="line"/>
        <point x="400.000" y="450.000"/>

        <point x="400.000" y="450.000"/>
        <point x="400.000" y="450.000" type="curve" smooth="yes"/>
        <point x="400.000" y="0.000" type="line"/>
        <point x="400.000" y="0.000"/>

        <point x="400.000" y="0.000"/>
        <point x="400.000" y="0.000" type="curve" smooth="yes"/>
        <point x="0.000" y="0.000" type="line"/>
        <point x="0.000" y="0.000"/>

        <point x="0.000" y="0.000"/>
        <point x="0.000" y="0.000" type="curve" smooth="yes"/>
        <point x="0.000" y="450.000" type="line"/>
    </contour>
  </outline>
</glyph>
<glyph name="_60.clip.center" format="2">
  <advance width="1"/>
  
  <outline>
    <contour>
        <point x="0.000" y="800.000"/>

        <point x="0.000" y="800.000"/>
        <point x="0.000" y="800.000" type="curve" smooth="yes"/>
        <point x="400.000" y="800.000" type="line"/>
        <point x="400.000" y="800.000"/>

        <point x="400.000" y="800.000"/>
        <point x="400.000" y="800.000" type="curve" smooth="yes"/>
        <point x="400.000" y="200.000" type="line"/>
        <point x="400.000" y="200.000"/>

        <point x="400.000" y="200.000"/>
        <point x="400.000" y="200.000" type="curve" smooth="yes"/>
        <point x="0.000" y="200.000" type="line"/>
        <point x="0.000" y="200.000"/>

        <point x="0.000" y="200.000"/>
        <point x="0.000" y="200.000" type="curve" smooth="yes"/>
        <point x="0.000" y="800.000" type="line"/>
    </contour>
  </outline>
</glyph>
